<?xml version="1.0" encoding="UTF-8"?>
<svg width="13px" height="20px" viewBox="0 0 13 20" version="1.1" xmlns="http://www.w3.org/2000/svg" xmlns:xlink="http://www.w3.org/1999/xlink">
    <title>Path</title>
    <g id="Page-1" stroke="none" stroke-width="1" fill="none" fill-rule="evenodd">
        <g id="Desktop" transform="translate(-97.000000, -1276.000000)" fill="#FFFFFF" fill-rule="nonzero">
            <g id="Group-4" transform="translate(105.000000, 1286.000000) scale(-1, 1) translate(-105.000000, -1286.000000) translate(85.000000, 1266.000000)">
                <g id="right-arrow" transform="translate(15.662646, 10.000013)">
                    <path d="M11.1988316,8.80116836 L2.86551568,0.467852393 C2.21155223,-0.16376664 1.17204458,-0.154733599 0.52915626,0.488154725 C-0.113732064,1.13104305 -0.122765104,2.1705507 0.508853928,2.82451415 L7.66383901,9.97949923 L0.508853928,17.1344843 C0.0755938572,17.5529409 -0.0981658018,18.172612 0.0543596146,18.7553265 C0.206885031,19.338041 0.661959016,19.793115 1.24467352,19.9456404 C1.82738803,20.0981658 2.4470591,19.9244061 2.86551568,19.4911461 L11.1988316,11.1578301 C11.8494669,10.5069984 11.8494669,9.45200008 11.1988316,8.80116836 Z" id="Path"></path>
                </g>
            </g>
        </g>
    </g>
</svg>